:FULLY-SPECIFIED
:FORCE-ALL-JOINTS-BE-3DOF
:DEGREES
227
root 8.81838 16.4598 -5.1709 8.64913 -2.15942 -3.04472
lfemur -42.6997 5.46931 -19.8912
ltibia 33.4579 -0 0
lfoot -11.4229 8.31733 -0.0919857
ltoes -8.62416 0 0
rfemur 6.23295 2.87312 25.0586
rtibia 21.5355 -0 0
rfoot -3.85423 4.74069 0.0175818
rtoes -12.3905 0 0
lowerback -6.24942 2.03929 0.724956
upperback -1.90255 2.61379 2.56767
thorax 1.45097 1.31588 2.42821
lowerneck -17.4725 -6.25583 -14.2034
upperneck 16.1786 -7.9111 14.8078
head 9.15897 -3.15944 6.4457
lclavicle -1.94623e-14 -5.56597e-15 0
lhumerus -47.4998 -7.47087 91.9925
lradius 23.6815 -0 0
lwrist 0.733857 0 0
lhand -9.69523 -23.2555 0.0146629
lfingers 7.12502 -0 0
lthumb 16.2761 6.06614 0.0103392
rclavicle -1.94623e-14 -5.56597e-15 0
rhumerus -41.4442 9.77079 -84.0522
rradius 46.2755 -0 0
rwrist -24.4324 0 0
rhand -31.1244 -25.7081 0.0575354
rfingers 7.12502 -0 0
rthumb -4.40302 -55.6333 0.0548584
228
root 8.84524 16.4548 -5.00737 8.70661 -2.34359 -2.98087
lfemur -42.7264 5.67465 -20.0905
ltibia 33.8899 -0 0
lfoot -11.2558 8.1671 -0.0915475
ltoes -8.22627 0 0
rfemur 6.42818 2.78932 24.7958
rtibia 21.9985 -0 0
rfoot -3.18341 4.74788 0.0174977
rtoes -12.5397 0 0
lowerback -6.25621 2.04009 0.654909
upperback -1.96085 2.6212 2.5267
thorax 1.39321 1.31996 2.42443
lowerneck -17.5226 -6.23573 -14.1907
upperneck 16.2436 -7.88452 14.7964
head 9.18472 -3.1451 6.44503
lclavicle -1.94623e-14 -5.56597e-15 0
lhumerus -47.4082 -7.33824 91.8017
lradius 23.4952 -0 0
lwrist 0.33206 0 0
lhand -9.57855 -23.2212 0.0145931
lfingers 7.12502 -0 0
lthumb 16.3884 6.09125 0.0102899
rclavicle -1.94623e-14 -5.56597e-15 0
rhumerus -41.7147 9.70052 -84.1932
rradius 45.9898 -0 0
rwrist -24.3073 0 0
rhand -31.0257 -25.549 0.0572613
rfingers 7.12502 -0 0
rthumb -4.30774 -55.4761 0.0545971
229
root 8.8721 16.4497 -4.84384 8.7639 -2.52782 -2.9172
lfemur -42.7538 5.8799 -20.2899
ltibia 34.322 -0 0
lfoot -11.0886 8.01687 -0.090671
ltoes -7.82838 0 0
rfemur 6.62377 2.70642 24.5328
rtibia 22.4614 -0 0
rfoot -2.51259 4.75506 0.0173295
rtoes -12.689 0 0
lowerback -6.26299 2.04089 0.584863
upperback -2.01916 2.62856 2.48573
thorax 1.33545 1.32404 2.42064
lowerneck -17.5727 -6.21561 -14.178
upperneck 16.3086 -7.85792 14.785
head 9.21048 -3.13076 6.44436
lclavicle -1.94623e-14 -5.56597e-15 0
lhumerus -47.3171 -7.2053 91.6113
lradius 23.309 -0 0
lwrist -0.0697356 0 0
lhand -9.46187 -23.1869 0.0144534
lfingers 7.12502 -0 0
lthumb 16.5008 6.11637 0.0101914
rclavicle -1.94623e-14 -5.56597e-15 0
rhumerus -41.985 9.6296 -84.3339
rradius 45.7041 -0 0
rwrist -24.1822 0 0
rhand -30.927 -25.3898 0.0567131
rfingers 7.12502 -0 0
rthumb -4.21245 -55.319 0.0540744
230
root 8.89896 16.4446 -4.68032 8.82098 -2.71211 -2.8537
lfemur -42.782 6.08505 -20.4896
ltibia 34.7541 -0 0
lfoot -10.9215 7.86665 -0.0893562
ltoes -7.43049 0 0
rfemur 6.81973 2.62441 24.2694
rtibia 22.9244 -0 0
rfoot -1.84177 4.76224 0.0170771
rtoes -12.8382 0 0
lowerback -6.26978 2.04168 0.514816
upperback -2.07748 2.63588 2.44475
thorax 1.27768 1.32811 2.41686
lowerneck -17.6229 -6.19548 -14.1654
upperneck 16.3736 -7.83132 14.7736
head 9.23623 -3.11641 6.44369
lclavicle -1.94623e-14 -5.56597e-15 0
lhumerus -47.2265 -7.07206 91.421
lradius 23.1227 -0 0
lwrist -0.471532 0 0
lhand -9.34519 -23.1526 0.0142439
lfingers 7.12502 -0 0
lthumb 16.6131 6.14148 0.0100437
rclavicle -1.94623e-14 -5.56597e-15 0
rhumerus -42.255 9.55802 -84.4742
rradius 45.4184 -0 0
rwrist -24.057 0 0
rhand -30.8283 -25.2307 0.0558909
rfingers 7.12502 -0 0
rthumb -4.11717 -55.1619 0.0532905
231
root 8.92582 16.4396 -4.51679 8.87788 -2.89647 -2.79038
lfemur -42.8109 6.2901 -20.6894
ltibia 35.1861 -0 0
lfoot -10.7543 7.71643 -0.0876032
ltoes -7.03261 0 0
rfemur 7.01605 2.54331 24.0058
rtibia 23.3873 -0 0
rfoot -1.17095 4.76942 0.0167408
rtoes -12.9874 0 0
lowerback -6.27657 2.04245 0.444769
upperback -2.1358 2.64315 2.40376
thorax 1.21992 1.33218 2.41306
lowerneck -17.673 -6.17534 -14.1527
upperneck 16.4386 -7.8047 14.7623
head 9.26198 -3.10207 6.44304
lclavicle -1.94623e-14 -5.56597e-15 0
lhumerus -47.1364 -6.93853 91.2311
lradius 22.9365 -0 0
lwrist -0.873328 0 0
lhand -9.22852 -23.1183 0.0139646
lfingers 7.12502 -0 0
lthumb 16.7254 6.16659 0.00984676
rclavicle -1.94623e-14 -5.56597e-15 0
rhumerus -42.5248 9.4858 -84.6141
rradius 45.1327 -0 0
rwrist -23.9319 0 0
rhand -30.7296 -25.0716 0.0547946
rfingers 7.12502 -0 0
rthumb -4.02189 -55.0047 0.0522452
